<?xml version="1.0" standalone="no"?>
<!DOCTYPE svg PUBLIC "-//W3C//DTD SVG 20010904//EN"
 "http://www.w3.org/TR/2001/REC-SVG-20010904/DTD/svg10.dtd">
<svg version="1.0" xmlns="http://www.w3.org/2000/svg"
 width="534.000000pt" height="534.000000pt" viewBox="0 0 534.000000 534.000000"
 preserveAspectRatio="xMidYMid meet">
<metadata>
Created by potrace 1.11, written by Peter Selinger 2001-2013
</metadata>
<g transform="translate(0.000000,534.000000) scale(0.100000,-0.100000)"
fill="#000000" stroke="none">
<path d="M2584 5221 c-59 -15 -126 -56 -170 -103 -37 -39 -101 -162 -349 -662
-167 -338 -318 -630 -335 -649 -41 -47 -88 -66 -205 -82 -22 -3 -58 -8 -80
-12 -22 -3 -49 -7 -60 -9 -11 -1 -38 -5 -60 -9 -22 -3 -58 -8 -80 -11 -22 -4
-49 -8 -60 -10 -25 -3 -167 -24 -215 -30 -19 -3 -60 -9 -90 -14 -30 -6 -75
-12 -100 -15 -25 -3 -56 -7 -70 -10 -14 -3 -43 -7 -65 -10 -191 -23 -396 -60
-440 -80 -74 -33 -127 -85 -166 -161 -31 -62 -34 -75 -33 -155 0 -150 8 -160
385 -529 782 -765 725 -699 716 -835 -3 -44 -8 -91 -11 -105 -4 -14 -10 -50
-15 -80 -5 -30 -16 -93 -25 -140 -8 -47 -17 -98 -20 -115 -3 -16 -17 -97 -31
-180 -14 -82 -28 -161 -30 -175 -6 -39 -12 -74 -40 -235 -15 -82 -28 -161 -30
-175 -3 -14 -8 -45 -13 -70 -31 -171 73 -303 241 -302 43 0 68 6 100 25 86 51
110 95 137 258 11 68 25 144 30 169 5 25 12 61 15 80 2 19 7 46 9 60 3 14 7
41 10 60 3 19 17 103 31 185 34 197 34 195 41 230 50 264 82 490 79 565 -3 97
-25 190 -63 269 -57 121 -66 131 -636 686 l-277 270 158 22 c87 12 183 25 213
29 30 3 62 8 72 9 9 2 38 6 65 10 26 3 77 10 113 15 36 5 81 12 100 14 19 3
73 10 120 16 47 7 96 14 110 15 79 9 132 18 184 31 66 16 216 83 216 96 0 4 6
8 13 8 20 0 140 119 181 178 19 30 67 117 105 195 93 191 311 639 368 759 37
76 50 95 60 86 7 -6 13 -15 13 -21 0 -5 31 -73 69 -151 38 -78 144 -294 236
-481 203 -415 243 -473 395 -570 90 -58 196 -96 306 -110 21 -2 50 -7 64 -9
14 -3 48 -8 75 -11 28 -3 57 -8 65 -10 8 -2 38 -6 65 -10 28 -3 61 -7 75 -10
14 -2 43 -7 65 -10 22 -3 72 -10 110 -16 39 -6 86 -12 105 -15 19 -2 62 -9 95
-14 33 -5 80 -12 105 -15 25 -3 54 -8 65 -9 11 -2 48 -7 82 -11 l62 -7 -148
-147 c-81 -80 -265 -261 -408 -401 -240 -235 -343 -349 -343 -378 0 -7 -4 -12
-10 -12 -5 0 -10 -6 -10 -13 0 -8 -7 -28 -15 -44 -36 -73 -54 -175 -51 -293 2
-63 6 -126 9 -140 3 -14 13 -65 21 -115 9 -49 18 -100 20 -111 2 -12 7 -39 10
-60 4 -22 20 -118 37 -214 17 -96 32 -188 35 -205 2 -16 7 -43 11 -60 3 -16 7
-39 9 -50 4 -28 14 -92 24 -145 5 -25 7 -46 6 -48 -2 -1 -32 13 -67 31 -362
190 -488 256 -574 302 -398 214 -470 240 -648 237 -115 -3 -246 -38 -337 -91
-8 -5 -71 -37 -139 -72 -183 -94 -227 -147 -225 -270 0 -66 21 -119 63 -159
57 -55 149 -79 225 -59 21 6 102 44 178 84 164 87 208 103 268 99 51 -3 111
-32 715 -348 77 -41 199 -104 270 -141 72 -37 162 -85 201 -106 145 -78 241
-95 344 -61 140 47 243 184 244 327 0 15 -13 127 -18 150 -2 11 -11 63 -20
115 -9 52 -18 106 -21 120 -3 13 -7 42 -10 65 -3 22 -8 47 -10 55 -2 8 -6 29
-9 45 -6 35 -84 489 -91 525 -2 14 -11 68 -20 120 -9 52 -20 117 -24 144 -12
67 -5 128 18 174 22 43 25 46 456 467 549 536 569 556 593 608 84 180 18 378
-154 465 -53 27 -88 35 -244 57 -14 2 -56 8 -95 14 -38 6 -86 13 -105 15 -19
3 -84 12 -145 21 -60 9 -126 19 -145 21 -19 3 -62 9 -95 14 -33 5 -78 12 -100
15 -22 3 -69 10 -105 16 -36 5 -138 21 -226 33 -159 24 -226 44 -269 83 -19
17 -75 97 -75 108 0 2 -130 267 -288 587 -318 643 -325 654 -440 705 -61 27
-170 39 -228 24z"/>
</g>
</svg>
